<svg width="315" height="150" viewBox="0 0 315 150" fill="none" xmlns="http://www.w3.org/2000/svg">
<path d="M102.935 128.429C102.814 127.794 102.375 127.266 101.772 127.033L100.824 126.666C93.0719 123.658 87.9717 116.487 87.6373 108.244L89.7709 106.827C92.9022 104.747 94.9925 101.418 95.5059 97.6944L100.936 58.3274C101.054 57.4711 100.57 56.6459 99.7659 56.3299C98.9607 56.0142 98.0449 56.2907 97.5496 56.9986L97.2043 57.4919C95.6453 49.2491 92.1211 40.8499 87.0341 33.4024C80.6576 24.0677 72.3325 17.1152 63.5931 13.825C60.0624 12.496 57.1131 9.70586 55.501 6.17043L53.1864 1.09468C52.8827 0.42794 52.2173 0 51.4842 0C50.7511 0 50.0861 0.42794 49.782 1.09468L47.4678 6.17009C45.8557 9.70586 42.906 12.4956 39.3757 13.8247C30.6352 17.1149 22.3095 24.068 15.9329 33.4038C10.8456 40.8519 7.32204 49.2515 5.7637 57.4943L5.41673 56.9986C4.92075 56.2904 4.00432 56.0145 3.20049 56.3299C2.39598 56.6455 1.91225 57.4711 2.03063 58.3274L7.4605 97.6944C7.97382 101.418 10.0642 104.746 13.1955 106.827L15.3301 108.245C14.9957 116.487 9.89513 123.657 2.14459 126.665L1.1955 127.033C0.59271 127.266 0.153204 127.794 0.0327824 128.429C-0.0876395 129.064 0.128372 129.716 0.603936 130.154C14.5072 142.952 32.5766 150 51.4839 150C70.3914 150 88.4608 142.952 102.364 130.154C102.839 129.716 103.055 129.064 102.935 128.429ZM62.2749 17.3275C70.3016 20.3489 77.9974 26.8075 83.944 35.5132C83.9794 35.5649 84.0124 35.6183 84.0478 35.67C77.6725 36.3864 71.2381 34.0875 66.7601 29.3612L66.5934 29.1853C65.9906 28.5485 65.0245 28.4165 64.2727 28.8679C62.3473 30.0228 60.0498 30.2007 57.97 29.3564C55.8898 28.5117 54.3668 26.7823 53.7919 24.612L53.3555 22.9645V10.0304C55.4847 13.358 58.6309 15.9556 62.2749 17.3275ZM40.6939 17.3271C44.3378 15.9556 47.4837 13.3583 49.6136 10.0307V22.9642L49.1771 24.612C48.6022 26.7823 47.0793 28.5117 44.9988 29.3564C42.9183 30.201 40.6211 30.0228 38.6957 28.8679C37.9432 28.4165 36.9778 28.5485 36.3743 29.186L36.2083 29.3615C31.7306 34.0882 25.2952 36.3875 18.9196 35.6704C18.9547 35.619 18.9873 35.5663 19.0224 35.5149C24.9696 26.8078 32.6661 20.3486 40.6939 17.3271ZM16.7377 39.1228C24.4509 40.5696 32.4354 38.1979 38.1055 32.7592C40.7418 33.8885 43.6949 33.9246 46.4068 32.8231C48.5451 31.955 50.298 30.4752 51.4845 28.5903C52.6707 30.4752 54.424 31.9546 56.5623 32.8231C59.2749 33.9246 62.2279 33.8885 64.8636 32.7592C69.4393 37.1481 75.5223 39.5412 81.7536 39.5412C83.2436 39.5412 84.7424 39.4031 86.231 39.1238C90.5043 46.3787 93.2522 54.3252 94.0918 61.939L91.0996 66.2136L81.9009 64.4733V59.0451C81.9009 58.146 81.2614 57.3739 80.3776 57.2068L51.8302 51.8049C51.6002 51.7613 51.3641 51.7613 51.1342 51.8049L22.5901 57.2068C21.7067 57.3742 21.0671 58.146 21.0671 59.0451V64.473L11.8668 66.2136L8.87698 61.9427C9.71551 54.3276 12.4638 46.3794 16.7377 39.1228ZM78.1587 63.7654L51.8308 58.7846C51.6012 58.741 51.3651 58.741 51.1352 58.7846L24.8087 63.765V60.5953L51.4818 55.5475L78.1583 60.5953V63.7654H78.1587ZM11.1674 97.1831L6.79648 65.4952L9.4944 69.3494C9.91622 69.9521 10.6527 70.2515 11.3749 70.1148L51.4832 62.5268L91.5911 70.1148C92.3143 70.2512 93.0498 69.9521 93.4716 69.3494L96.1699 65.4952L91.799 97.1831C91.4319 99.8443 89.9379 102.223 87.7002 103.71L51.4828 127.769L15.2658 103.71C13.0281 102.223 11.5344 99.8443 11.1674 97.1831ZM51.4839 146.258C34.503 146.258 18.2328 140.275 5.34529 129.35C12.791 125.749 17.8209 118.739 18.8798 110.603L50.4484 131.573C50.762 131.782 51.1229 131.886 51.4835 131.886C51.8441 131.886 52.205 131.782 52.5187 131.573L84.0882 110.602C85.1465 118.74 90.1757 125.75 97.6228 129.35C84.7349 140.275 68.4647 146.258 51.4839 146.258Z" fill="url(#paint0_linear_190_24)"/>
<path d="M144.468 63.2273H152.331L157.74 76.4091H158.013L163.422 63.2273H171.286V86.5H165.104V73.0455H164.922L159.74 86.3182H156.013L150.831 72.9545H150.649V86.5H144.468V63.2273ZM182.78 86.8182C180.886 86.8182 179.265 86.4432 177.916 85.6932C176.568 84.9356 175.534 83.8826 174.814 82.5341C174.094 81.178 173.735 79.6061 173.735 77.8182C173.735 76.0303 174.094 74.4621 174.814 73.1136C175.534 71.7576 176.568 70.7045 177.916 69.9545C179.265 69.197 180.886 68.8182 182.78 68.8182C184.674 68.8182 186.295 69.197 187.644 69.9545C188.992 70.7045 190.026 71.7576 190.746 73.1136C191.466 74.4621 191.825 76.0303 191.825 77.8182C191.825 79.6061 191.466 81.178 190.746 82.5341C190.026 83.8826 188.992 84.9356 187.644 85.6932C186.295 86.4432 184.674 86.8182 182.78 86.8182ZM182.825 82.1818C183.356 82.1818 183.814 82.0038 184.2 81.6477C184.587 81.2917 184.886 80.7841 185.098 80.125C185.31 79.4659 185.416 78.6818 185.416 77.7727C185.416 76.8561 185.31 76.072 185.098 75.4205C184.886 74.7614 184.587 74.2538 184.2 73.8977C183.814 73.5417 183.356 73.3636 182.825 73.3636C182.265 73.3636 181.784 73.5417 181.382 73.8977C180.981 74.2538 180.674 74.7614 180.462 75.4205C180.25 76.072 180.144 76.8561 180.144 77.7727C180.144 78.6818 180.25 79.4659 180.462 80.125C180.674 80.7841 180.981 81.2917 181.382 81.6477C181.784 82.0038 182.265 82.1818 182.825 82.1818ZM204.78 69.0455V73.5909H193.28V69.0455H204.78ZM195.507 64.8636H201.78V80.8864C201.78 81.1288 201.822 81.3333 201.905 81.5C201.988 81.6591 202.117 81.7803 202.291 81.8636C202.466 81.9394 202.689 81.9773 202.962 81.9773C203.151 81.9773 203.371 81.9545 203.621 81.9091C203.879 81.8636 204.068 81.8258 204.189 81.7955L205.098 86.2045C204.818 86.2879 204.416 86.3902 203.894 86.5114C203.379 86.6326 202.765 86.7121 202.053 86.75C200.613 86.8258 199.405 86.678 198.428 86.3068C197.45 85.928 196.716 85.3333 196.223 84.5227C195.731 83.7121 195.492 82.697 195.507 81.4773V64.8636ZM215.561 86.8182C213.667 86.8182 212.046 86.4432 210.698 85.6932C209.349 84.9356 208.315 83.8826 207.595 82.5341C206.876 81.178 206.516 79.6061 206.516 77.8182C206.516 76.0303 206.876 74.4621 207.595 73.1136C208.315 71.7576 209.349 70.7045 210.698 69.9545C212.046 69.197 213.667 68.8182 215.561 68.8182C217.455 68.8182 219.076 69.197 220.425 69.9545C221.773 70.7045 222.807 71.7576 223.527 73.1136C224.247 74.4621 224.607 76.0303 224.607 77.8182C224.607 79.6061 224.247 81.178 223.527 82.5341C222.807 83.8826 221.773 84.9356 220.425 85.6932C219.076 86.4432 217.455 86.8182 215.561 86.8182ZM215.607 82.1818C216.137 82.1818 216.595 82.0038 216.982 81.6477C217.368 81.2917 217.667 80.7841 217.879 80.125C218.092 79.4659 218.198 78.6818 218.198 77.7727C218.198 76.8561 218.092 76.072 217.879 75.4205C217.667 74.7614 217.368 74.2538 216.982 73.8977C216.595 73.5417 216.137 73.3636 215.607 73.3636C215.046 73.3636 214.565 73.5417 214.164 73.8977C213.762 74.2538 213.455 74.7614 213.243 75.4205C213.031 76.072 212.925 76.8561 212.925 77.7727C212.925 78.6818 213.031 79.4659 213.243 80.125C213.455 80.7841 213.762 81.2917 214.164 81.6477C214.565 82.0038 215.046 82.1818 215.607 82.1818Z" fill="#E5E5E5"/>
<path d="M227.061 86.5V63.2273H243.425V68.3182H233.379V72.3182H242.425V77.4091H233.379V86.5H227.061ZM252.968 86.8182C251.074 86.8182 249.452 86.4432 248.104 85.6932C246.755 84.9356 245.721 83.8826 245.002 82.5341C244.282 81.178 243.922 79.6061 243.922 77.8182C243.922 76.0303 244.282 74.4621 245.002 73.1136C245.721 71.7576 246.755 70.7045 248.104 69.9545C249.452 69.197 251.074 68.8182 252.968 68.8182C254.861 68.8182 256.483 69.197 257.831 69.9545C259.18 70.7045 260.214 71.7576 260.933 73.1136C261.653 74.4621 262.013 76.0303 262.013 77.8182C262.013 79.6061 261.653 81.178 260.933 82.5341C260.214 83.8826 259.18 84.9356 257.831 85.6932C256.483 86.4432 254.861 86.8182 252.968 86.8182ZM253.013 82.1818C253.543 82.1818 254.002 82.0038 254.388 81.6477C254.774 81.2917 255.074 80.7841 255.286 80.125C255.498 79.4659 255.604 78.6818 255.604 77.7727C255.604 76.8561 255.498 76.072 255.286 75.4205C255.074 74.7614 254.774 74.2538 254.388 73.8977C254.002 73.5417 253.543 73.3636 253.013 73.3636C252.452 73.3636 251.971 73.5417 251.57 73.8977C251.168 74.2538 250.861 74.7614 250.649 75.4205C250.437 76.072 250.331 76.8561 250.331 77.7727C250.331 78.6818 250.437 79.4659 250.649 80.125C250.861 80.7841 251.168 81.2917 251.57 81.6477C251.971 82.0038 252.452 82.1818 253.013 82.1818ZM264.558 86.5V69.0455H270.649V72.3636H270.831C271.149 71.1364 271.653 70.2386 272.343 69.6705C273.039 69.1023 273.854 68.8182 274.786 68.8182C275.058 68.8182 275.327 68.8409 275.593 68.8864C275.865 68.9242 276.127 68.9811 276.377 69.0568V74.4091C276.066 74.303 275.683 74.2235 275.229 74.1705C274.774 74.1174 274.384 74.0909 274.058 74.0909C273.445 74.0909 272.892 74.2311 272.399 74.5114C271.914 74.7841 271.532 75.1705 271.252 75.6705C270.971 76.1629 270.831 76.7424 270.831 77.4091V86.5H264.558ZM285.843 86.8182C283.949 86.8182 282.327 86.4432 280.979 85.6932C279.63 84.9356 278.596 83.8826 277.877 82.5341C277.157 81.178 276.797 79.6061 276.797 77.8182C276.797 76.0303 277.157 74.4621 277.877 73.1136C278.596 71.7576 279.63 70.7045 280.979 69.9545C282.327 69.197 283.949 68.8182 285.843 68.8182C287.555 68.8182 289.036 69.1288 290.286 69.75C291.543 70.3636 292.517 71.2348 293.206 72.3636C293.896 73.4848 294.244 74.803 294.252 76.3182H288.433C288.35 75.4015 288.085 74.7045 287.638 74.2273C287.199 73.7424 286.63 73.5 285.933 73.5C285.388 73.5 284.911 73.6591 284.502 73.9773C284.093 74.2879 283.774 74.7614 283.547 75.3977C283.32 76.0265 283.206 76.8182 283.206 77.7727C283.206 78.7273 283.32 79.5227 283.547 80.1591C283.774 80.7879 284.093 81.2614 284.502 81.5795C284.911 81.8902 285.388 82.0455 285.933 82.0455C286.396 82.0455 286.805 81.9394 287.161 81.7273C287.517 81.5076 287.805 81.1894 288.024 80.7727C288.252 80.3485 288.388 79.8333 288.433 79.2273H294.252C294.229 80.7652 293.877 82.1061 293.195 83.25C292.513 84.3864 291.547 85.2652 290.297 85.8864C289.055 86.5076 287.57 86.8182 285.843 86.8182ZM305.203 86.8182C303.34 86.8182 301.734 86.4621 300.385 85.75C299.044 85.0303 298.01 84 297.283 82.6591C296.563 81.3106 296.203 79.697 296.203 77.8182C296.203 76.0152 296.567 74.4394 297.294 73.0909C298.022 71.7424 299.048 70.6932 300.374 69.9432C301.7 69.1932 303.264 68.8182 305.067 68.8182C306.385 68.8182 307.578 69.0227 308.647 69.4318C309.715 69.8409 310.628 70.4356 311.385 71.2159C312.143 71.9886 312.726 72.928 313.135 74.0341C313.544 75.1402 313.749 76.3864 313.749 77.7727V79.2273H298.158V75.7727H307.976C307.968 75.2727 307.84 74.8333 307.59 74.4545C307.347 74.0682 307.018 73.7689 306.601 73.5568C306.192 73.3371 305.726 73.2273 305.203 73.2273C304.696 73.2273 304.23 73.3371 303.806 73.5568C303.381 73.7689 303.04 74.0644 302.783 74.4432C302.533 74.822 302.4 75.2652 302.385 75.7727V79.5C302.385 80.0606 302.503 80.5606 302.737 81C302.972 81.4394 303.309 81.7841 303.749 82.0341C304.188 82.2841 304.718 82.4091 305.34 82.4091C305.772 82.4091 306.165 82.3485 306.522 82.2273C306.885 82.1061 307.196 81.9318 307.453 81.7045C307.711 81.4697 307.9 81.1894 308.022 80.8636H313.749C313.552 82.0758 313.086 83.1288 312.351 84.0227C311.616 84.9091 310.643 85.5985 309.431 86.0909C308.226 86.5758 306.817 86.8182 305.203 86.8182Z" fill="url(#paint1_linear_190_24)"/>
<defs>
<linearGradient id="paint0_linear_190_24" x1="51.4838" y1="275" x2="155.604" y2="245.881" gradientUnits="userSpaceOnUse">
<stop stop-color="#2200AC"/>
<stop offset="0.5" stop-color="#7F2CBC"/>
<stop offset="1" stop-color="#C900B8"/>
</linearGradient>
<linearGradient id="paint1_linear_190_24" x1="228.968" y1="127" x2="273.317" y2="47.3137" gradientUnits="userSpaceOnUse">
<stop stop-color="#2200AC"/>
<stop offset="0.5" stop-color="#7F2CBC"/>
<stop offset="1" stop-color="#C900B8"/>
</linearGradient>
</defs>
</svg>
