<svg width="150" height="178" viewBox="0 0 150 178" fill="none" xmlns="http://www.w3.org/2000/svg">
<g clip-path="url(#clip0_63_96)">
<path d="M126.451 128.929C126.33 128.294 125.891 127.766 125.288 127.533L124.34 127.166C116.588 124.158 111.488 116.987 111.153 108.744L113.287 107.327C116.418 105.247 118.509 101.918 119.022 98.1944L124.452 58.8274C124.57 57.9711 124.087 57.1459 123.282 56.8299C122.477 56.5142 121.561 56.7907 121.066 57.4986L120.721 57.9919C119.161 49.7491 115.637 41.3499 110.55 33.9024C104.174 24.5677 95.8487 17.6152 87.1092 14.325C83.5786 12.996 80.6292 10.2059 79.0172 6.67043L76.7026 1.59468C76.3988 0.92794 75.7334 0.5 75.0004 0.5C74.2673 0.5 73.6023 0.92794 73.2981 1.59468L70.9839 6.67009C69.3718 10.2059 66.4222 12.9956 62.8919 14.3247C54.1514 17.6149 45.8256 24.568 39.4491 33.9038C34.3618 41.3519 30.8382 49.7515 29.2799 57.9943L28.9329 57.4986C28.4369 56.7904 27.5205 56.5145 26.7167 56.8299C25.9122 57.1455 25.4284 57.9711 25.5468 58.8274L30.9767 98.1944C31.49 101.918 33.5804 105.246 36.7117 107.327L38.8463 108.745C38.5119 116.987 33.4113 124.157 25.6608 127.165L24.7117 127.533C24.1089 127.766 23.6694 128.294 23.549 128.929C23.4285 129.564 23.6445 130.216 24.1201 130.654C38.0234 143.452 56.0928 150.5 75 150.5C93.9076 150.5 111.977 143.452 125.88 130.654C126.356 130.216 126.572 129.564 126.451 128.929ZM85.7911 17.8275C93.8178 20.8489 101.514 27.3075 107.46 36.0132C107.496 36.0649 107.529 36.1183 107.564 36.17C101.189 36.8864 94.7543 34.5875 90.2763 29.8612L90.1096 29.6853C89.5068 29.0485 88.5407 28.9165 87.7889 29.3679C85.8635 30.5228 83.566 30.7007 81.4861 29.8564C79.406 29.0117 77.883 27.2823 77.3081 25.112L76.8717 23.4645V10.5304C79.0008 13.858 82.1471 16.4556 85.7911 17.8275ZM64.21 17.8271C67.854 16.4556 70.9999 13.8583 73.1298 10.5307V23.4642L72.6933 25.112C72.1184 27.2823 70.5955 29.0117 68.5149 29.8564C66.4344 30.701 64.1372 30.5228 62.2118 29.3679C61.4594 28.9165 60.494 29.0485 59.8905 29.686L59.7245 29.8615C55.2468 34.5882 48.8113 36.8875 42.4358 36.1704C42.4708 36.119 42.5035 36.0663 42.5385 36.0149C48.4858 27.3078 56.1822 20.8486 64.21 17.8271ZM40.2539 39.6228C47.967 41.0696 55.9516 38.6979 61.6216 33.2592C64.258 34.3885 67.2111 34.4246 69.9229 33.3231C72.0613 32.455 73.8142 30.9752 75.0007 29.0903C76.1869 30.9752 77.9402 32.4546 80.0785 33.3231C82.7911 34.4246 85.7441 34.3885 88.3798 33.2592C92.9555 37.6481 99.0385 40.0412 105.27 40.0412C106.76 40.0412 108.259 39.9031 109.747 39.6238C114.02 46.8787 116.768 54.8252 117.608 62.439L114.616 66.7136L105.417 64.9733V59.5451C105.417 58.646 104.778 57.8739 103.894 57.7068L75.3463 52.3049C75.1164 52.2613 74.8803 52.2613 74.6503 52.3049L46.1063 57.7068C45.2228 57.8742 44.5833 58.646 44.5833 59.5451V64.973L35.383 66.7136L32.3932 62.4427C33.2317 54.8276 35.98 46.8794 40.2539 39.6228ZM101.675 64.2654L75.347 59.2846C75.1174 59.241 74.8813 59.241 74.6514 59.2846L48.3249 64.2651V61.0953L74.998 56.0475L101.674 61.0953V64.2654H101.675ZM34.6836 97.6831L30.3127 65.9952L33.0106 69.8494C33.4324 70.4521 34.1689 70.7515 34.8911 70.6148L74.9994 63.0268L115.107 70.6148C115.831 70.7512 116.566 70.4521 116.988 69.8494L119.686 65.9952L115.315 97.6831C114.948 100.344 113.454 102.723 111.216 104.21L74.999 128.269L38.782 104.21C36.5443 102.723 35.0506 100.344 34.6836 97.6831ZM75 146.758C58.0192 146.758 41.749 140.775 28.8615 129.85C36.3072 126.249 41.337 119.239 42.396 111.103L73.9645 132.073C74.2782 132.282 74.6391 132.386 74.9997 132.386C75.3603 132.386 75.7212 132.282 76.0348 132.073L107.604 111.102C108.663 119.24 113.692 126.25 121.139 129.85C108.251 140.775 91.9809 146.758 75 146.758Z" fill="url(#paint0_linear_63_96)"/>
</g>
<path d="M37.6562 164.318H41.0966L43.4631 170.085H43.5824L45.9489 164.318H49.3892V174.5H46.6847V168.614H46.6051L44.3381 174.42H42.7074L40.4403 168.574H40.3608V174.5H37.6562V164.318ZM54.418 174.639C53.5894 174.639 52.8801 174.475 52.2901 174.147C51.7002 173.816 51.2478 173.355 50.9329 172.765C50.618 172.172 50.4606 171.484 50.4606 170.702C50.4606 169.92 50.618 169.233 50.9329 168.643C51.2478 168.05 51.7002 167.589 52.2901 167.261C52.8801 166.93 53.5894 166.764 54.418 166.764C55.2466 166.764 55.9558 166.93 56.5458 167.261C57.1358 167.589 57.5882 168.05 57.9031 168.643C58.2179 169.233 58.3754 169.92 58.3754 170.702C58.3754 171.484 58.2179 172.172 57.9031 172.765C57.5882 173.355 57.1358 173.816 56.5458 174.147C55.9558 174.475 55.2466 174.639 54.418 174.639ZM54.4379 172.611C54.6699 172.611 54.8704 172.533 55.0394 172.377C55.2085 172.221 55.3394 171.999 55.4322 171.711C55.525 171.423 55.5714 171.08 55.5714 170.682C55.5714 170.281 55.525 169.938 55.4322 169.653C55.3394 169.364 55.2085 169.142 55.0394 168.987C54.8704 168.831 54.6699 168.753 54.4379 168.753C54.1926 168.753 53.9821 168.831 53.8065 168.987C53.6308 169.142 53.4966 169.364 53.4038 169.653C53.311 169.938 53.2646 170.281 53.2646 170.682C53.2646 171.08 53.311 171.423 53.4038 171.711C53.4966 171.999 53.6308 172.221 53.8065 172.377C53.9821 172.533 54.1926 172.611 54.4379 172.611ZM64.043 166.864V168.852H59.0117V166.864H64.043ZM59.9862 165.034H62.7305V172.044C62.7305 172.15 62.7487 172.24 62.7852 172.312C62.8216 172.382 62.878 172.435 62.9542 172.472C63.0304 172.505 63.1282 172.521 63.2475 172.521C63.3304 172.521 63.4265 172.511 63.5359 172.491C63.6486 172.472 63.7314 172.455 63.7844 172.442L64.1822 174.371C64.0595 174.407 63.8839 174.452 63.6552 174.505C63.4298 174.558 63.1613 174.593 62.8498 174.609C62.2201 174.643 61.6914 174.578 61.2638 174.415C60.8363 174.25 60.5148 173.99 60.2994 173.635C60.0839 173.28 59.9795 172.836 59.9862 172.303V165.034ZM68.7598 174.639C67.9312 174.639 67.2219 174.475 66.6319 174.147C66.042 173.816 65.5895 173.355 65.2747 172.765C64.9598 172.172 64.8024 171.484 64.8024 170.702C64.8024 169.92 64.9598 169.233 65.2747 168.643C65.5895 168.05 66.042 167.589 66.6319 167.261C67.2219 166.93 67.9312 166.764 68.7598 166.764C69.5884 166.764 70.2976 166.93 70.8876 167.261C71.4776 167.589 71.93 168.05 72.2449 168.643C72.5597 169.233 72.7172 169.92 72.7172 170.702C72.7172 171.484 72.5597 172.172 72.2449 172.765C71.93 173.355 71.4776 173.816 70.8876 174.147C70.2976 174.475 69.5884 174.639 68.7598 174.639ZM68.7797 172.611C69.0117 172.611 69.2122 172.533 69.3812 172.377C69.5502 172.221 69.6812 171.999 69.774 171.711C69.8668 171.423 69.9132 171.08 69.9132 170.682C69.9132 170.281 69.8668 169.938 69.774 169.653C69.6812 169.364 69.5502 169.142 69.3812 168.987C69.2122 168.831 69.0117 168.753 68.7797 168.753C68.5344 168.753 68.3239 168.831 68.1483 168.987C67.9726 169.142 67.8384 169.364 67.7456 169.653C67.6528 169.938 67.6064 170.281 67.6064 170.682C67.6064 171.08 67.6528 171.423 67.7456 171.711C67.8384 171.999 67.9726 172.221 68.1483 172.377C68.3239 172.533 68.5344 172.611 68.7797 172.611Z" fill="#E5E5E5"/>
<path d="M73.791 174.5V164.318H80.9501V166.545H76.5552V168.295H80.5126V170.523H76.5552V174.5H73.791ZM85.125 174.639C84.2964 174.639 83.5871 174.475 82.9972 174.147C82.4072 173.816 81.9548 173.355 81.6399 172.765C81.325 172.172 81.1676 171.484 81.1676 170.702C81.1676 169.92 81.325 169.233 81.6399 168.643C81.9548 168.05 82.4072 167.589 82.9972 167.261C83.5871 166.93 84.2964 166.764 85.125 166.764C85.9536 166.764 86.6629 166.93 87.2528 167.261C87.8428 167.589 88.2952 168.05 88.6101 168.643C88.925 169.233 89.0824 169.92 89.0824 170.702C89.0824 171.484 88.925 172.172 88.6101 172.765C88.2952 173.355 87.8428 173.816 87.2528 174.147C86.6629 174.475 85.9536 174.639 85.125 174.639ZM85.1449 172.611C85.3769 172.611 85.5774 172.533 85.7464 172.377C85.9155 172.221 86.0464 171.999 86.1392 171.711C86.232 171.423 86.2784 171.08 86.2784 170.682C86.2784 170.281 86.232 169.938 86.1392 169.653C86.0464 169.364 85.9155 169.142 85.7464 168.987C85.5774 168.831 85.3769 168.753 85.1449 168.753C84.8996 168.753 84.6892 168.831 84.5135 168.987C84.3378 169.142 84.2036 169.364 84.1108 169.653C84.018 169.938 83.9716 170.281 83.9716 170.682C83.9716 171.08 84.018 171.423 84.1108 171.711C84.2036 171.999 84.3378 172.221 84.5135 172.377C84.6892 172.533 84.8996 172.611 85.1449 172.611ZM90.196 174.5V166.864H92.8608V168.315H92.9403C93.0795 167.778 93.3 167.386 93.6016 167.137C93.9065 166.888 94.2628 166.764 94.6705 166.764C94.7898 166.764 94.9074 166.774 95.0234 166.794C95.1428 166.811 95.2571 166.835 95.3665 166.869V169.21C95.2306 169.164 95.0632 169.129 94.8643 169.106C94.6655 169.083 94.4948 169.071 94.3523 169.071C94.0838 169.071 93.8419 169.132 93.6264 169.255C93.4143 169.374 93.2469 169.543 93.1243 169.762C93.0017 169.978 92.9403 170.231 92.9403 170.523V174.5H90.196ZM99.5078 174.639C98.6792 174.639 97.9699 174.475 97.38 174.147C96.79 173.816 96.3376 173.355 96.0227 172.765C95.7079 172.172 95.5504 171.484 95.5504 170.702C95.5504 169.92 95.7079 169.233 96.0227 168.643C96.3376 168.05 96.79 167.589 97.38 167.261C97.9699 166.93 98.6792 166.764 99.5078 166.764C100.257 166.764 100.905 166.9 101.452 167.172C102.002 167.44 102.428 167.821 102.729 168.315C103.031 168.806 103.183 169.383 103.187 170.045H100.641C100.605 169.644 100.489 169.339 100.293 169.131C100.101 168.919 99.8525 168.812 99.5476 168.812C99.3089 168.812 99.1001 168.882 98.9212 169.021C98.7422 169.157 98.603 169.364 98.5036 169.643C98.4041 169.918 98.3544 170.264 98.3544 170.682C98.3544 171.099 98.4041 171.447 98.5036 171.726C98.603 172.001 98.7422 172.208 98.9212 172.347C99.1001 172.483 99.3089 172.551 99.5476 172.551C99.7498 172.551 99.9287 172.505 100.085 172.412C100.24 172.316 100.366 172.177 100.462 171.994C100.562 171.809 100.621 171.583 100.641 171.318H103.187C103.177 171.991 103.023 172.578 102.724 173.078C102.426 173.575 102.004 173.96 101.457 174.232C100.913 174.503 100.263 174.639 99.5078 174.639ZM107.978 174.639C107.163 174.639 106.46 174.483 105.87 174.172C105.284 173.857 104.831 173.406 104.513 172.82C104.198 172.23 104.041 171.524 104.041 170.702C104.041 169.913 104.2 169.223 104.518 168.634C104.836 168.044 105.285 167.585 105.865 167.256C106.445 166.928 107.13 166.764 107.919 166.764C108.495 166.764 109.017 166.854 109.485 167.033C109.952 167.212 110.351 167.472 110.683 167.813C111.014 168.151 111.269 168.562 111.448 169.046C111.627 169.53 111.717 170.075 111.717 170.682V171.318H104.896V169.807H109.191C109.188 169.588 109.132 169.396 109.022 169.23C108.916 169.061 108.772 168.93 108.59 168.837C108.411 168.741 108.207 168.693 107.978 168.693C107.756 168.693 107.552 168.741 107.367 168.837C107.181 168.93 107.032 169.059 106.919 169.225C106.81 169.391 106.752 169.585 106.745 169.807V171.438C106.745 171.683 106.797 171.902 106.899 172.094C107.002 172.286 107.15 172.437 107.342 172.546C107.534 172.656 107.766 172.71 108.038 172.71C108.227 172.71 108.399 172.684 108.555 172.631C108.714 172.578 108.85 172.501 108.963 172.402C109.075 172.299 109.158 172.177 109.211 172.034H111.717C111.631 172.564 111.427 173.025 111.105 173.416C110.784 173.804 110.358 174.106 109.828 174.321C109.301 174.533 108.684 174.639 107.978 174.639Z" fill="url(#paint1_linear_63_96)"/>
<defs>
<linearGradient id="paint0_linear_63_96" x1="74.9999" y1="275.5" x2="179.12" y2="246.381" gradientUnits="userSpaceOnUse">
<stop stop-color="#2200AC"/>
<stop offset="0.5" stop-color="#7F2CBC"/>
<stop offset="1" stop-color="#C900B8"/>
</linearGradient>
<linearGradient id="paint1_linear_63_96" x1="75" y1="191.667" x2="94.1927" y2="156.71" gradientUnits="userSpaceOnUse">
<stop stop-color="#2200AC"/>
<stop offset="0.5" stop-color="#7F2CBC"/>
<stop offset="1" stop-color="#C900B8"/>
</linearGradient>
<clipPath id="clip0_63_96">
<rect width="150" height="150" fill="white" transform="translate(0 0.5)"/>
</clipPath>
</defs>
</svg>
